<?xml version="1.0" encoding="UTF-8"?>
<!DOCTYPE svg PUBLIC "-//W3C//DTD SVG 1.1//EN" "http://www.w3.org/Graphics/SVG/1.1/DTD/svg11.dtd">
<!-- Creator: CorelDRAW 2018 (64-Bit) -->
<svg xmlns="http://www.w3.org/2000/svg" xml:space="preserve" width="384px" height="384px" version="1.1" style="shape-rendering:geometricPrecision; text-rendering:geometricPrecision; image-rendering:optimizeQuality; fill-rule:evenodd; clip-rule:evenodd"
viewBox="0 0 146.87 146.87"
 xmlns:xlink="http://www.w3.org/1999/xlink">
 <defs>
  <style type="text/css">
   <![CDATA[
    .str0 {stroke:black;stroke-width:0.9;stroke-miterlimit:22.9256}
    .fil0 {fill:black}
    .fil1 {fill:#FEFEFE}
   ]]>
  </style>
 </defs>
 <g id="Слой_x0020_1">
  <metadata id="CorelCorpID_0Corel-Layer"/>
  <g id="_2496214968624">
   <circle class="fil0 str0" cx="73.44" cy="73.44" r="72.99"/>
   <g>
    <path class="fil1" d="M57.69 96.95c0.01,0 0.02,0.01 0.02,0.01l9.47 0c0.02,0 0.03,0 0.05,0 0.56,0 1.01,0.44 1.04,0.99l0 3.79c-0.03,0.51 -0.43,0.93 -0.93,0.98l-15.2 0c-0.53,-0.06 -0.93,-0.5 -0.93,-1.04 0,0 -0.01,0 -0.01,0l0 -3.66c0,-9.15 7.98,-13.99 16.26,-20.12 0.4,-0.22 0.78,-0.05 0.81,0.43l0 4.83c0,0.01 0,0.01 0,0.01 0,0.58 -0.17,0.96 -0.42,1.26 -5.45,3.86 -10.26,7.67 -10.48,12.2 0,0 0,0 0,0.01 0,0.17 0.14,0.31 0.32,0.31zm9.68 -39.51c-5.27,0.24 -8.17,3.51 -8.58,7.81 0,0.01 0,0.01 0,0.03 0,0 0,0.01 0,0.02 -0.01,0.05 -0.01,0.1 -0.01,0.14 -0.09,0.5 -0.51,0.87 -1.03,0.87 0,0 -0.01,0.01 -0.01,0.01l-4.16 0c-0.53,-0.04 -0.96,-0.49 -0.96,-1.03 0.36,-6.16 4.03,-13.16 14.62,-13.53 0.55,0 1,0.43 1.03,0.98l0 3.73c-0.03,0.5 -0.41,0.91 -0.9,0.97z"/>
    <path class="fil1" d="M95.12 85.69l0 6.67c0,7.27 -4.88,10.55 -10.47,10.55 -5.37,0 -10.48,-3.28 -10.48,-10.55l0 -6.67c0,-3.91 1.41,-6.65 3.59,-8.35 -2.15,-1.72 -3.59,-4.45 -3.59,-8.31l0 -6.67c0,-7.27 4.88,-10.51 10.48,-10.51 5.36,0 10.47,3.24 10.47,10.51l0 6.67c0,3.91 -1.41,6.66 -3.59,8.37 2.16,1.71 3.59,4.44 3.59,8.29zm-4.78 -23.44c0,-3.96 -2.6,-5.87 -5.69,-5.87 -3.09,0 -5.67,1.91 -5.67,5.87l0 6.78c0,3.97 2.58,5.85 5.67,5.85 3.09,0 5.69,-1.88 5.69,-5.85l0 -6.78zm0 23.34c0,-3.97 -2.6,-5.88 -5.69,-5.88 -3.09,0 -5.67,1.91 -5.67,5.88l0 6.77c0,3.97 2.58,5.85 5.67,5.85 3.09,0 5.69,-1.88 5.69,-5.85l0 -6.77z"/>
    <path class="fil1" d="M71.56 41.77l2.4 0c0.29,0 0.53,0.23 0.53,0.53 0,0.29 -0.24,0.53 -0.53,0.53l-2.4 0c-0.29,0 -0.53,-0.24 -0.53,-0.53 0,-0.3 0.24,-0.53 0.53,-0.53z"/>
    <path class="fil1" d="M71.56 112.22l2.4 0c0.29,0 0.53,0.24 0.53,0.53 0,0.3 -0.24,0.54 -0.53,0.54l-2.4 0c-0.29,0 -0.53,-0.24 -0.53,-0.54 0,-0.29 0.24,-0.53 0.53,-0.53z"/>
    <path class="fil1" d="M41.25 112.01l-4.35 4.01c-0.25,0.23 -0.64,0.22 -0.88,-0.04 -0.23,-0.25 -0.21,-0.65 0.04,-0.87l3.12 -2.88 -3.08 0.49c-0.24,0.04 -0.44,0 -0.6,-0.17 -0.15,-0.16 -0.17,-0.36 -0.11,-0.59l0.73 -3.01 -3.11 2.87c-0.25,0.23 -0.63,0.21 -0.86,-0.05 -0.24,-0.25 -0.22,-0.62 0.03,-0.85l4.36 -4.02c0.25,-0.23 0.65,-0.23 0.89,0.03l0.09 0.1c0.18,0.2 0.2,0.43 0.14,0.65l-1.01 3.85 3.93 -0.7c0.24,-0.05 0.45,0.01 0.62,0.2l0.09 0.1c0.24,0.25 0.21,0.65 -0.04,0.88zm10.09 10.46l-0.01 0.02c-1,1.72 -3.17,2.39 -5.04,1.29 -1.88,-1.09 -2.36,-3.28 -1.36,-5l0.01 -0.02c1.01,-1.72 3.17,-2.38 5.05,-1.29 1.88,1.1 2.36,3.28 1.35,5zm-1.94 -4.02c-1.22,-0.71 -2.63,-0.24 -3.32,0.95l-0.01 0.02c-0.69,1.19 -0.4,2.67 0.81,3.38 1.22,0.7 2.62,0.24 3.32,-0.95l0.01 -0.02c0.69,-1.18 0.4,-2.67 -0.81,-3.38zm15.67 5.3l-1.38 5.78c-0.08,0.33 -0.4,0.54 -0.73,0.46l-0.05 -0.02c-0.28,-0.06 -0.43,-0.25 -0.54,-0.51l-2.45 -5.42 -1.04 4.36c-0.08,0.33 -0.4,0.53 -0.73,0.45 -0.33,-0.08 -0.54,-0.41 -0.46,-0.73l1.38 -5.77c0.08,-0.34 0.41,-0.55 0.75,-0.47l0.13 0.03c0.3,0.07 0.43,0.26 0.54,0.51l2.38 5.27 1.01 -4.23c0.08,-0.32 0.41,-0.52 0.73,-0.44 0.34,0.07 0.54,0.4 0.46,0.73zm13.15 6.31c0.01,0.35 -0.25,0.62 -0.6,0.64 -0.25,0.01 -0.4,-0.11 -0.54,-0.27l-2.4 -2.8 -1.1 1.16 0.06 1.46c0.02,0.35 -0.24,0.63 -0.59,0.64 -0.35,0.02 -0.63,-0.24 -0.65,-0.58l-0.26 -5.94c-0.01,-0.34 0.25,-0.63 0.6,-0.64 0.35,-0.02 0.63,0.24 0.64,0.59l0.13 2.98 3.21 -3.51c0.14,-0.16 0.28,-0.25 0.51,-0.26 0.34,-0.01 0.58,0.25 0.6,0.55 0,0.2 -0.07,0.34 -0.21,0.48l-2.11 2.21 2.52 2.86c0.1,0.12 0.18,0.24 0.19,0.43zm12.9 -2.48l-3.97 1.28c-0.34,0.11 -0.68,-0.07 -0.79,-0.41l-1.78 -5.54c-0.11,-0.34 0.07,-0.68 0.41,-0.79l3.91 -1.26c0.29,-0.09 0.61,0.07 0.7,0.36 0.1,0.3 -0.07,0.61 -0.36,0.7l-3.33 1.07 0.57 1.75 2.89 -0.93c0.29,-0.09 0.61,0.07 0.7,0.37 0.1,0.29 -0.07,0.6 -0.36,0.69l-2.89 0.93 0.58 1.81 3.38 -1.09c0.28,-0.09 0.6,0.07 0.69,0.36 0.1,0.3 -0.07,0.61 -0.35,0.7zm10.4 -5.24c-0.29,0.19 -0.66,0.11 -0.85,-0.18l-1.19 -1.83 -3.87 -1.47c-0.13,-0.06 -0.26,-0.14 -0.36,-0.29 -0.18,-0.27 -0.09,-0.64 0.2,-0.84 0.23,-0.15 0.47,-0.12 0.71,-0.01l3.21 1.3 0.11 -3.48c0.01,-0.27 0.08,-0.5 0.3,-0.64 0.3,-0.2 0.66,-0.1 0.84,0.18 0.09,0.14 0.11,0.31 0.1,0.46l-0.22 4.09 1.21 1.85c0.19,0.29 0.11,0.67 -0.19,0.86zm10.44 -8.87c-0.64,0.71 -1.48,1.18 -2.44,1.37 -0.17,0.04 -0.37,0 -0.52,-0.14 -0.24,-0.21 -0.25,-0.58 -0.03,-0.82 0.12,-0.13 0.23,-0.17 0.33,-0.19 0.73,-0.13 1.35,-0.41 1.87,-0.98 0.51,-0.57 0.57,-1.18 0.18,-1.53l-0.02 -0.01c-0.37,-0.34 -0.76,-0.31 -1.87,0.46 -1.28,0.87 -2.18,1.2 -3.15,0.32l-0.01 -0.01c-0.9,-0.81 -0.84,-2.12 0.1,-3.17 0.6,-0.65 1.25,-1.03 1.99,-1.22 0.16,-0.05 0.37,-0.03 0.55,0.13 0.24,0.22 0.25,0.58 0.03,0.82 -0.08,0.09 -0.17,0.15 -0.28,0.18 -0.63,0.17 -1.12,0.44 -1.49,0.85 -0.49,0.54 -0.49,1.1 -0.15,1.41l0.01 0.02c0.41,0.36 0.81,0.29 1.96,-0.51 1.27,-0.86 2.19,-1.07 3.06,-0.28l0.01 0.01c0.98,0.89 0.87,2.19 -0.13,3.29z"/>
    <path class="fil1" d="M39.12 48.07c-0.23,0.24 -0.61,0.26 -0.86,0.04l-3.81 -3.56 -1.14 1.22c-0.21,0.23 -0.57,0.23 -0.79,0.03 -0.22,-0.21 -0.24,-0.57 -0.03,-0.8l3.13 -3.34c0.2,-0.22 0.56,-0.23 0.78,-0.02 0.22,0.21 0.24,0.56 0.04,0.79l-1.15 1.23 3.81 3.55c0.24,0.23 0.25,0.62 0.02,0.86zm8.41 -7.11l-0.1 0.07c-0.24,0.18 -0.52,0.15 -0.79,-0.04l-3.9 -2.72 1.42 4.54c0.1,0.32 0.02,0.6 -0.21,0.77l-0.1 0.07c-0.24,0.18 -0.52,0.15 -0.8,-0.03l-5.02 -3.4c-0.06,-0.04 -0.13,-0.1 -0.18,-0.16 -0.19,-0.27 -0.11,-0.65 0.16,-0.84 0.23,-0.18 0.53,-0.16 0.74,0l4.07 2.88 -1.52 -4.72c-0.09,-0.29 -0.04,-0.57 0.2,-0.75l0.08 -0.05c0.24,-0.18 0.53,-0.15 0.77,0.03l4.04 2.88 -1.52 -4.76c-0.08,-0.25 -0.02,-0.52 0.22,-0.7 0.26,-0.19 0.63,-0.14 0.82,0.12 0.05,0.06 0.09,0.16 0.1,0.23l1.73 5.81c0.09,0.31 0.03,0.6 -0.21,0.77zm7.76 -4.22l-3.67 1.73c-0.31,0.14 -0.66,0.02 -0.81,-0.29l-2.42 -5.13c-0.15,-0.31 -0.02,-0.66 0.29,-0.81l3.63 -1.71c0.26,-0.13 0.59,-0.01 0.72,0.26 0.13,0.27 0,0.59 -0.26,0.72l-3.08 1.45 0.76 1.62 2.68 -1.26c0.27,-0.13 0.59,-0.01 0.72,0.26 0.13,0.27 0.01,0.59 -0.26,0.72l-2.68 1.26 0.79 1.67 3.13 -1.47c0.26,-0.13 0.59,-0.01 0.72,0.26 0.13,0.27 0.01,0.59 -0.26,0.72zm7.17 -2.27l-0.05 0.01c-0.27,0.08 -0.49,-0.01 -0.71,-0.17l-4.67 -3.42 1.21 4.19c0.09,0.32 -0.09,0.64 -0.4,0.73 -0.32,0.1 -0.65,-0.08 -0.74,-0.4l-1.6 -5.54c-0.1,-0.32 0.08,-0.66 0.41,-0.76l0.13 -0.03c0.28,-0.09 0.48,0.01 0.7,0.16l4.54 3.33 -1.17 -4.07c-0.09,-0.31 0.09,-0.64 0.4,-0.73 0.32,-0.09 0.65,0.09 0.74,0.4l1.61 5.56c0.09,0.32 -0.08,0.65 -0.4,0.74zm6.33 -6.83l-1.67 0.21 0.64 5.17c0.05,0.33 -0.19,0.63 -0.53,0.67 -0.33,0.04 -0.63,-0.19 -0.68,-0.52l-0.64 -5.17 -1.66 0.2c-0.32,0.04 -0.59,-0.18 -0.63,-0.48 -0.04,-0.3 0.17,-0.59 0.49,-0.63l4.54 -0.57c0.3,-0.03 0.58,0.19 0.61,0.49 0.04,0.3 -0.17,0.59 -0.47,0.63zm8.28 -0.22l-2.41 3.17 -0.04 2.16c-0.01,0.33 -0.28,0.59 -0.62,0.59 -0.34,-0.01 -0.6,-0.28 -0.59,-0.62l0.04 -2.12 -2.31 -3.3c-0.07,-0.12 -0.13,-0.26 -0.13,-0.43 0.01,-0.32 0.28,-0.57 0.62,-0.57 0.27,0.01 0.44,0.16 0.59,0.38l1.86 2.8 2 -2.73c0.15,-0.22 0.33,-0.36 0.59,-0.36 0.35,0.01 0.59,0.28 0.58,0.6 0,0.17 -0.09,0.32 -0.18,0.43zm11 1.6c-0.07,0.29 -0.37,0.47 -0.66,0.4l-3.31 -0.79 -0.41 1.74 2.88 0.69c0.28,0.06 0.47,0.36 0.4,0.66 -0.07,0.28 -0.37,0.46 -0.65,0.39l-2.88 -0.69 -0.43 1.8 3.35 0.8c0.29,0.07 0.47,0.37 0.41,0.65 -0.08,0.3 -0.37,0.47 -0.66,0.4l-3.94 -0.94c-0.33,-0.08 -0.53,-0.4 -0.45,-0.73l1.32 -5.51c0.08,-0.34 0.4,-0.54 0.73,-0.46l3.9 0.93c0.28,0.07 0.47,0.37 0.4,0.66zm3.56 1.27l-1.97 5.44c-0.12,0.31 -0.46,0.47 -0.77,0.36 -0.33,-0.12 -0.49,-0.46 -0.37,-0.77l1.97 -5.44c0.11,-0.32 0.45,-0.47 0.78,-0.36 0.31,0.12 0.47,0.46 0.36,0.77zm7.76 4.18c-0.15,0.28 -0.51,0.41 -0.81,0.26 -0.14,-0.08 -0.21,-0.19 -0.27,-0.3 -0.25,-0.49 -0.58,-0.9 -1.24,-1.24 -1.13,-0.58 -2.5,-0.02 -3.1,1.15l-0.01 0.02c-0.64,1.26 -0.28,2.61 0.97,3.25 0.58,0.3 1.2,0.38 1.72,0.29l0.58 -1.14 -1.21 -0.62c-0.26,-0.14 -0.37,-0.45 -0.24,-0.71 0.13,-0.26 0.46,-0.36 0.72,-0.23l1.71 0.87c0.31,0.16 0.42,0.52 0.27,0.82l-0.84 1.64c-0.16,0.31 -0.39,0.47 -0.73,0.49 -0.7,0.09 -1.6,0.02 -2.52,-0.44 -1.92,-0.98 -2.48,-3 -1.57,-4.78l0.01 -0.02c0.88,-1.72 2.94,-2.5 4.78,-1.56 0.93,0.47 1.43,1.01 1.78,1.7 0.07,0.13 0.1,0.34 0,0.55zm7.64 4.73l-3.47 4.63c-0.2,0.26 -0.57,0.32 -0.85,0.11 -0.27,-0.2 -0.32,-0.57 -0.12,-0.84l1.41 -1.88 -2.62 -1.97 -1.42 1.88c-0.2,0.27 -0.57,0.32 -0.84,0.12 -0.27,-0.21 -0.32,-0.58 -0.12,-0.85l3.47 -4.62c0.2,-0.27 0.57,-0.32 0.85,-0.12 0.26,0.2 0.32,0.58 0.12,0.84l-1.39 1.85 2.63 1.97 1.38 -1.85c0.2,-0.26 0.58,-0.32 0.84,-0.11 0.28,0.2 0.33,0.57 0.13,0.84zm5.93 5.83c-0.22,0.21 -0.57,0.21 -0.78,-0.01l-1.18 -1.21 -3.74 3.64c-0.24,0.23 -0.62,0.22 -0.85,-0.02 -0.24,-0.24 -0.24,-0.63 0,-0.86l3.74 -3.63 -1.16 -1.2c-0.22,-0.23 -0.21,-0.58 0.01,-0.79 0.22,-0.22 0.57,-0.22 0.79,0.01l3.19 3.28c0.21,0.22 0.2,0.57 -0.02,0.79z"/>
    <path class="fil1" d="M25.84 76.24l-1.41 3.94c-0.07,0.21 -0.23,0.34 -0.43,0.34l-0.09 0c-0.2,0 -0.35,-0.13 -0.42,-0.34l-1.06 -3.11 -1.06 3.11c-0.08,0.21 -0.23,0.34 -0.44,0.34l-0.08 0c-0.2,0 -0.35,-0.13 -0.43,-0.34l-1.41 -3.94c-0.02,-0.05 -0.03,-0.11 -0.03,-0.16 0,-0.24 0.19,-0.41 0.43,-0.41 0.2,0 0.36,0.13 0.41,0.3l1.09 3.27 1.08 -3.25c0.06,-0.2 0.21,-0.34 0.42,-0.34l0.06 0c0.21,0 0.36,0.14 0.42,0.34l1.07 3.25 1.1 -3.27c0.06,-0.17 0.2,-0.3 0.4,-0.3 0.23,0 0.42,0.17 0.42,0.4 0,0.05 -0.02,0.12 -0.04,0.17zm1.41 4.25c-0.24,0 -0.42,-0.18 -0.42,-0.42l0 -3.99c0,-0.23 0.18,-0.41 0.42,-0.41 0.23,0 0.42,0.18 0.42,0.41l0 3.99c0,0.24 -0.19,0.42 -0.42,0.42zm5.23 -0.01l-0.03 0c-0.2,0 -0.32,-0.1 -0.43,-0.25l-2.45 -3.16 0 3.01c0,0.23 -0.18,0.41 -0.41,0.41 -0.23,0 -0.41,-0.18 -0.41,-0.41l0 -3.98c0,-0.24 0.18,-0.43 0.42,-0.43l0.09 0c0.2,0 0.32,0.11 0.43,0.25l2.38 3.08 0 -2.92c0,-0.23 0.18,-0.41 0.41,-0.41 0.23,0 0.41,0.18 0.41,0.41l0 3.99c0,0.23 -0.18,0.41 -0.41,0.41zm4.57 -4.03l-2.35 0 0 1.23 2.05 0c0.2,0 0.37,0.17 0.37,0.38 0,0.21 -0.17,0.37 -0.37,0.37l-2.05 0 0 1.28 2.39 0c0.2,0 0.37,0.17 0.37,0.37 0,0.21 -0.17,0.37 -0.37,0.37l-2.8 0c-0.24,0 -0.42,-0.18 -0.42,-0.42l0 -3.91c0,-0.23 0.18,-0.42 0.42,-0.42l2.76 0c0.21,0 0.38,0.17 0.38,0.38 0,0.21 -0.17,0.37 -0.38,0.37z"/>
    <path class="fil1" d="M113.47 80.49c-0.23,0 -0.42,-0.19 -0.42,-0.42l0 -2.85 -1.16 1.75c-0.09,0.13 -0.2,0.21 -0.35,0.21 -0.15,0 -0.26,-0.08 -0.35,-0.21l-1.15 -1.73 0 2.84c0,0.23 -0.19,0.41 -0.42,0.41 -0.23,0 -0.4,-0.18 -0.4,-0.41l0 -3.98c0,-0.24 0.18,-0.43 0.42,-0.43l0.09 0c0.18,0 0.3,0.1 0.38,0.23l1.44 2.25 1.45 -2.26c0.09,-0.14 0.21,-0.22 0.38,-0.22l0.09 0c0.23,0 0.42,0.19 0.42,0.43l0 3.97c0,0.24 -0.19,0.42 -0.42,0.42zm4.82 -4.04l-2.35 0 0 1.23 2.04 0c0.21,0 0.38,0.17 0.38,0.38 0,0.21 -0.17,0.37 -0.38,0.37l-2.04 0 0 1.28 2.38 0c0.21,0 0.38,0.17 0.38,0.37 0,0.21 -0.17,0.37 -0.38,0.37l-2.8 0c-0.23,0 -0.42,-0.18 -0.42,-0.42l0 -3.91c0,-0.23 0.19,-0.42 0.42,-0.42l2.77 0c0.2,0 0.37,0.17 0.37,0.38 0,0.21 -0.17,0.37 -0.37,0.37zm5.5 4.04c-0.2,0 -0.33,-0.12 -0.41,-0.29l-0.38 -0.89 -2.31 0 -0.4 0.91c-0.07,0.17 -0.21,0.27 -0.39,0.27 -0.22,0 -0.39,-0.17 -0.39,-0.39 0,-0.06 0.02,-0.12 0.06,-0.19l1.76 -3.94c0.1,-0.21 0.27,-0.34 0.51,-0.34l0.04 0c0.23,0 0.4,0.13 0.49,0.34l1.77 3.94c0.03,0.06 0.05,0.12 0.05,0.18 0,0.22 -0.17,0.4 -0.4,0.4zm-1.95 -3.84l-0.83 1.92 1.67 0 -0.84 -1.92zm5.68 -0.17l-1.16 0 0 3.59c0,0.24 -0.2,0.42 -0.43,0.42 -0.23,0 -0.42,-0.18 -0.42,-0.42l0 -3.59 -1.15 0c-0.22,0 -0.39,-0.18 -0.39,-0.39 0,-0.21 0.17,-0.39 0.39,-0.39l3.16 0c0.21,0 0.38,0.18 0.38,0.39 0,0.21 -0.17,0.39 -0.38,0.39z"/>
    <path class="fil1" d="M77.38 15.74c-0.06,0 -0.11,-0.04 -0.13,0.05 -0.03,0.09 -1.19,3.09 -4.09,3.13 -3.37,0.05 -4.35,-2.78 -4.48,-3.1 -0.09,-0.22 -1.06,0.07 -1.36,-1.39 -0.26,-1.2 0.86,-1.64 0.86,-1.75 0,-0.1 -0.03,-1.14 0.85,-2.33 0.77,-1.04 1.86,-1.45 3.23,-1.56 0,-0.06 -0.03,-0.13 -0.16,-0.12 -0.19,0.02 -0.51,-0.08 -0.49,-0.46 0.02,-0.42 0.73,-0.68 1.28,-0.07 0,0 0.36,-0.55 1.12,-0.55 0.68,0 0.66,0.9 -0.02,0.9 -0.31,0 -0.45,0.15 -0.51,0.28 4.24,0.23 4.21,3.81 4.21,3.94 0,0.13 0.98,0.31 0.93,1.54 -0.06,1.23 -1.18,1.49 -1.24,1.49zm-0.17 -2.24c-0.22,-0.08 -0.34,-0.23 -0.34,-0.44 0,-0.21 0.17,-3.53 -3.89,-3.44 -1.23,0.03 -2.05,0.22 -2.83,0.79 -0.78,0.57 -1.1,1.66 -1.13,2.33 -0.04,0.67 -0.17,0.69 -0.49,0.79 -0.31,0.1 -0.46,0.46 -0.37,0.79 0.09,0.33 0.27,0.59 0.74,0.52 0.46,-0.07 0.43,0.46 0.51,0.63 0.12,0.25 1.08,2.59 3.55,2.59 2.47,0 3.48,-2.38 3.58,-2.79 0.1,-0.41 0.32,-0.44 0.53,-0.44 0.21,0 0.68,-0.01 0.69,-0.59 0.01,-0.59 -0.33,-0.66 -0.55,-0.74zm-1.67 2.46c-0.08,0.12 0.04,0.33 -0.55,1.07 -1.11,1.4 -3.01,1.07 -3.83,0.3 -0.61,-0.57 -0.69,-1.31 -0.78,-1.38 -0.56,-0.46 -0.96,-0.78 -1.1,-1.79 -0.14,-1.01 0.23,-2.12 1.45,-2.7 1.22,-0.59 2.13,0 2.22,0 0.17,-0.01 0.73,-0.51 1.92,-0.15 0.68,0.21 1.79,1.22 1.79,2.36 0,1.69 -1.03,2.17 -1.12,2.29zm0.23 -2.39c-0.14,-1.27 -1.45,-1.57 -1.93,-1.47 -0.47,0.11 -0.76,0.33 -0.9,0.33 -0.14,0 -0.11,-0.22 -0.84,-0.3 -0.74,-0.09 -2.07,0.37 -2,1.79 0.05,1.1 1.03,1.34 1.09,1.62 0.05,0.24 0.1,1.58 1.84,1.58 1.68,0 1.57,-1.58 1.76,-1.74 0.2,-0.16 1.12,-0.55 0.98,-1.81zm-1.5 1.27c-0.38,0 -0.68,-0.3 -0.68,-0.67 0,-0.38 0.3,-0.68 0.68,-0.68 0.37,0 0.67,0.3 0.67,0.68 0,0.37 -0.3,0.67 -0.67,0.67zm-2.85 0c-0.37,0 -0.68,-0.3 -0.68,-0.67 0,-0.38 0.31,-0.68 0.68,-0.68 0.37,0 0.68,0.3 0.68,0.68 0,0.37 -0.31,0.67 -0.68,0.67z"/>
   </g>
  </g>
 </g>
</svg>
